<svg width="137" height="22" viewBox="0 0 137 22" fill="none" xmlns="http://www.w3.org/2000/svg">
<path d="M9.8 14.56L0.800003 10.64V8.85999L9.8 4.85999V6.85999L3.38 9.69999L9.8 12.54V14.56Z" fill="#052751"/>
<path d="M11.6055 14.68C11.9121 14.6667 12.1655 14.6267 12.3655 14.56C12.5788 14.4933 12.7388 14.34 12.8455 14.1C12.9655 13.86 13.0255 13.4733 13.0255 12.94V5.27999C13.0255 4.91999 13.0321 4.57333 13.0455 4.24C13.0721 3.90666 13.0921 3.65333 13.1055 3.47999C12.8921 3.49333 12.6255 3.50666 12.3055 3.51999C11.9855 3.51999 11.7521 3.52666 11.6055 3.53999V1.99999L17.4255 1.97999C18.7455 1.97999 19.8855 2.17999 20.8455 2.57999C21.8188 2.96666 22.6121 3.49333 23.2255 4.15999C23.8521 4.82666 24.3188 5.57333 24.6255 6.39999C24.9321 7.21333 25.0855 8.03333 25.0855 8.85999C25.0855 9.67333 24.9388 10.5 24.6455 11.34C24.3655 12.18 23.9188 12.9533 23.3055 13.66C22.6921 14.3533 21.8921 14.92 20.9055 15.36C19.9188 15.7867 18.7255 16 17.3255 16H11.6055V14.68ZM15.9255 12.72C15.9255 13.08 15.9188 13.4267 15.9055 13.76C15.8921 14.0933 15.8721 14.3467 15.8455 14.52C15.9788 14.5067 16.1588 14.5067 16.3855 14.52C16.6255 14.52 16.8721 14.5267 17.1255 14.54C17.3788 14.54 17.5855 14.54 17.7455 14.54C18.4788 14.54 19.1055 14.3933 19.6255 14.1C20.1588 13.8067 20.5921 13.4133 20.9255 12.92C21.2721 12.4133 21.5255 11.8467 21.6855 11.22C21.8455 10.5933 21.9255 9.94666 21.9255 9.27999C21.9255 7.91999 21.7388 6.80666 21.3655 5.93999C20.9921 5.07333 20.4655 4.42666 19.7855 3.99999C19.1188 3.57333 18.3188 3.34666 17.3855 3.31999C17.0655 3.30666 16.7921 3.33999 16.5655 3.41999C16.3521 3.48666 16.1921 3.63999 16.0855 3.87999C15.9788 4.11999 15.9255 4.5 15.9255 5.01999V12.72Z" fill="#052751"/>
<path d="M33.3078 11.18C33.3078 10.62 33.2212 10.22 33.0478 9.97999C32.8745 9.72666 32.6345 9.56666 32.3278 9.49999C32.0345 9.43333 31.7078 9.40666 31.3478 9.41999L30.8278 9.43999V12.72C30.8278 13.08 30.8211 13.42 30.8078 13.74C30.7945 14.06 30.7745 14.3067 30.7478 14.48H33.4278C33.8278 14.48 34.2145 14.3933 34.5878 14.22C34.9611 14.0333 35.2678 13.7333 35.5078 13.32C35.7478 12.8933 35.8678 12.32 35.8678 11.6H37.1678L37.0678 16H26.5078V14.68C26.8145 14.6667 27.0678 14.6267 27.2678 14.56C27.4811 14.4933 27.6411 14.34 27.7478 14.1C27.8678 13.86 27.9278 13.4733 27.9278 12.94V5.27999C27.9278 4.91999 27.9345 4.57333 27.9478 4.24C27.9745 3.90666 27.9945 3.65333 28.0078 3.47999C27.7945 3.49333 27.5278 3.50666 27.2078 3.51999C26.8878 3.51999 26.6545 3.52666 26.5078 3.53999V1.99999H36.5078L36.6278 5.87999H35.3078C35.3078 5.14666 35.1811 4.59333 34.9278 4.21999C34.6745 3.84666 34.3611 3.59999 33.9878 3.47999C33.6145 3.34666 33.2478 3.28666 32.8878 3.29999L32.1678 3.31999C31.8878 3.31999 31.6478 3.35999 31.4478 3.43999C31.2478 3.50666 31.0945 3.66666 30.9878 3.91999C30.8811 4.15999 30.8278 4.53999 30.8278 5.05999V8.05999H33.1678L33.0878 6.31999H34.6278V11.18H33.3078Z" fill="#052751"/>
<path d="M38.7883 4.85999L47.7883 8.77999V10.56L38.7883 14.56V12.56L45.2083 9.71999L38.7883 6.87999V4.85999Z" fill="#052751"/>
<path d="M54.1338 16.32C53.2404 16.32 52.4204 16.12 51.6738 15.72C50.9271 15.32 50.3271 14.74 49.8738 13.98C49.4338 13.22 49.2138 12.3 49.2138 11.22C49.2138 10.46 49.3404 9.74666 49.5938 9.07999C49.8471 8.41333 50.2004 7.82666 50.6538 7.31999C51.1204 6.81333 51.6671 6.41333 52.2938 6.11999C52.9338 5.82666 53.6404 5.67999 54.4138 5.67999C55.2671 5.67999 55.9738 5.81333 56.5338 6.07999C57.1071 6.33333 57.5338 6.67333 57.8138 7.09999C58.1071 7.51333 58.2538 7.95333 58.2538 8.41999C58.2538 8.80666 58.1338 9.15333 57.8938 9.45999C57.6671 9.75333 57.3404 9.90666 56.9138 9.91999C56.4071 9.93333 56.0538 9.79333 55.8538 9.49999C55.6538 9.19333 55.5538 8.89999 55.5538 8.61999C55.5538 8.49999 55.5738 8.35999 55.6138 8.19999C55.6538 8.02666 55.7138 7.87333 55.7938 7.73999C55.7004 7.53999 55.5604 7.39333 55.3738 7.29999C55.1871 7.20666 54.9938 7.14666 54.7938 7.11999C54.6071 7.07999 54.4538 7.06666 54.3338 7.07999C53.6938 7.11999 53.1671 7.43999 52.7538 8.03999C52.3404 8.63999 52.1338 9.50666 52.1338 10.64C52.1338 11.3067 52.2138 11.9333 52.3738 12.52C52.5471 13.0933 52.8271 13.5667 53.2138 13.94C53.6004 14.3133 54.1204 14.5133 54.7738 14.54C55.3338 14.5533 55.8804 14.42 56.4138 14.14C56.9471 13.86 57.4004 13.48 57.7738 13L58.6938 13.9C58.2138 14.5667 57.7138 15.0733 57.1938 15.42C56.6738 15.7667 56.1538 16 55.6338 16.12C55.1271 16.2533 54.6271 16.32 54.1338 16.32Z" fill="#052751"/>
<path d="M64.6653 16.32C63.7053 16.32 62.8386 16.1133 62.0653 15.7C61.292 15.2867 60.6786 14.7 60.2253 13.94C59.7853 13.1667 59.5653 12.26 59.5653 11.22C59.5653 10.1133 59.792 9.14666 60.2453 8.31999C60.712 7.47999 61.3253 6.83333 62.0853 6.37999C62.8586 5.91333 63.6986 5.67999 64.6053 5.67999C65.5653 5.67999 66.4253 5.88666 67.1853 6.29999C67.9453 6.71333 68.5453 7.30666 68.9853 8.07999C69.4253 8.83999 69.6453 9.75333 69.6453 10.82C69.6453 11.94 69.432 12.9133 69.0053 13.74C68.5787 14.5667 67.992 15.2067 67.2453 15.66C66.4986 16.1 65.6387 16.32 64.6653 16.32ZM64.7453 14.9C65.2786 14.8867 65.6786 14.7 65.9453 14.34C66.2253 13.98 66.4186 13.5267 66.5253 12.98C66.632 12.4333 66.6853 11.88 66.6853 11.32C66.6853 10.8267 66.6453 10.3267 66.5653 9.81999C66.4986 9.31333 66.3853 8.85333 66.2253 8.43999C66.0653 8.02666 65.8453 7.69333 65.5653 7.43999C65.2986 7.18666 64.9653 7.06666 64.5653 7.07999C64.0453 7.09333 63.632 7.27999 63.3253 7.63999C63.032 7.99999 62.8186 8.45333 62.6853 8.99999C62.5653 9.53333 62.5053 10.0933 62.5053 10.68C62.5053 11.36 62.5786 12.0267 62.7253 12.68C62.872 13.3333 63.1053 13.8733 63.4253 14.3C63.7586 14.7133 64.1986 14.9133 64.7453 14.9Z" fill="#052751"/>
<path d="M74.9534 16.32C74.1534 16.32 73.4468 16.1133 72.8334 15.7C72.2334 15.2867 71.7601 14.7 71.4134 13.94C71.0801 13.18 70.9134 12.2867 70.9134 11.26C70.9134 10.18 71.1201 9.21999 71.5334 8.37999C71.9468 7.53999 72.5268 6.87999 73.2734 6.39999C74.0201 5.91999 74.8868 5.67999 75.8734 5.67999C76.2334 5.67999 76.5534 5.71999 76.8334 5.79999C77.1268 5.86666 77.4001 5.94666 77.6534 6.03999V4.71999C77.6534 4.53333 77.6601 4.26666 77.6734 3.91999C77.6868 3.57333 77.7068 3.25333 77.7334 2.95999C77.5201 2.97333 77.2668 2.98666 76.9734 2.99999C76.6801 3.01333 76.4601 3.01999 76.3134 3.01999V1.49999C76.9401 1.49999 77.4601 1.46666 77.8734 1.39999C78.3001 1.33333 78.6334 1.25333 78.8734 1.15999C79.1268 1.06666 79.3001 0.979994 79.3934 0.899994H80.4734V12.78C80.4734 12.9667 80.4668 13.2333 80.4534 13.58C80.4401 13.9133 80.4201 14.2333 80.3934 14.54C80.6201 14.5133 80.8601 14.5 81.1134 14.5C81.3668 14.4867 81.5601 14.48 81.6934 14.48V16H77.8934C77.8801 15.8533 77.8601 15.7 77.8334 15.54C77.8201 15.38 77.8001 15.2267 77.7734 15.08C77.3334 15.5333 76.8801 15.8533 76.4134 16.04C75.9468 16.2267 75.4601 16.32 74.9534 16.32ZM75.9934 14.5C76.3401 14.5 76.6601 14.4133 76.9534 14.24C77.2468 14.0533 77.4801 13.82 77.6534 13.54C77.6534 13.34 77.6534 13.14 77.6534 12.94C77.6534 12.74 77.6534 12.54 77.6534 12.34V7.53999C77.5201 7.43333 77.3201 7.34666 77.0534 7.27999C76.7868 7.19999 76.5134 7.15999 76.2334 7.15999C75.6201 7.17333 75.1401 7.36666 74.7934 7.73999C74.4468 8.11333 74.2001 8.58666 74.0534 9.16C73.9201 9.73333 73.8534 10.3333 73.8534 10.96C73.8534 11.52 73.9201 12.0733 74.0534 12.62C74.2001 13.1667 74.4268 13.62 74.7334 13.98C75.0534 14.3267 75.4734 14.5 75.9934 14.5Z" fill="#052751"/>
<path d="M83.0075 14.7C83.3808 14.7 83.6475 14.6267 83.8075 14.48C83.9675 14.3333 84.0675 14.1267 84.1075 13.86C84.1608 13.58 84.1875 13.2667 84.1875 12.92V9.59999C84.1875 9.35999 84.1942 9.08666 84.2075 8.77999C84.2208 8.45999 84.2408 8.15333 84.2675 7.85999C84.0542 7.87333 83.8008 7.88666 83.5075 7.89999C83.2275 7.89999 83.0142 7.90666 82.8675 7.91999V6.39999C83.4808 6.39999 84.0008 6.36666 84.4275 6.29999C84.8542 6.23333 85.1875 6.15333 85.4275 6.05999C85.6808 5.96666 85.8542 5.87999 85.9475 5.79999H87.0275V12.78C87.0275 12.9667 87.0208 13.2333 87.0075 13.58C86.9942 13.9133 86.9742 14.2333 86.9475 14.54C87.1608 14.5133 87.3942 14.5 87.6475 14.5C87.9142 14.4867 88.1142 14.48 88.2475 14.48V16H83.0075V14.7ZM85.5075 4.21999C85.0542 4.21999 84.6808 4.05999 84.3875 3.73999C84.0942 3.41999 83.9475 3.03333 83.9475 2.57999C83.9475 2.12666 84.1008 1.73999 84.4075 1.41999C84.7142 1.09999 85.0742 0.939995 85.4875 0.939995C85.9142 0.939995 86.2675 1.09999 86.5475 1.41999C86.8408 1.73999 86.9875 2.12666 86.9875 2.57999C86.9875 3.03333 86.8542 3.41999 86.5875 3.73999C86.3208 4.05999 85.9608 4.21999 85.5075 4.21999Z" fill="#052751"/>
<path d="M89.5905 16V14.7C89.9638 14.7 90.2305 14.6267 90.3905 14.48C90.5638 14.3333 90.6705 14.1267 90.7105 13.86C90.7638 13.58 90.7905 13.2667 90.7905 12.92V7.63999L89.3305 7.65999V6H90.7905C90.8705 4.16 91.2971 2.85333 92.0705 2.07999C92.8438 1.29333 94.0105 0.899994 95.5705 0.899994C96.7305 0.899994 97.6571 1.03999 98.3505 1.31999C99.0438 1.59999 99.5438 1.92666 99.8505 2.29999C100.157 2.65999 100.304 2.96666 100.29 3.21999C100.29 3.51333 100.19 3.81333 99.9905 4.11999C99.7905 4.41333 99.4838 4.56666 99.0705 4.57999C98.6971 4.59333 98.3905 4.48666 98.1505 4.25999C97.9105 4.01999 97.7905 3.72666 97.7905 3.37999C97.7905 3.31333 97.7971 3.24666 97.8105 3.17999C97.8238 3.09999 97.8371 3.02666 97.8505 2.95999C97.7971 2.89333 97.6238 2.77333 97.3305 2.59999C97.0505 2.41333 96.5971 2.31999 95.9705 2.31999C95.2238 2.31999 94.6771 2.47999 94.3305 2.79999C93.9971 3.10666 93.7838 3.50666 93.6905 3.99999C93.6105 4.47999 93.5705 4.98666 93.5705 5.51999V6H95.2305C95.8438 6 96.4438 6 97.0305 6C97.6171 6 98.1171 5.98666 98.5305 5.95999C98.9438 5.93333 99.1971 5.87999 99.2905 5.79999H100.37V12.78C100.37 12.9667 100.364 13.2333 100.35 13.58C100.337 13.9133 100.317 14.2333 100.29 14.54C100.517 14.5133 100.757 14.5 101.01 14.5C101.264 14.4867 101.457 14.48 101.59 14.48V16H96.3505V14.7C96.7238 14.7 96.9905 14.6267 97.1505 14.48C97.3238 14.3333 97.4305 14.1267 97.4705 13.86C97.5105 13.58 97.5305 13.2667 97.5305 12.92V9.21999C97.5305 8.97999 97.5371 8.70666 97.5505 8.39999C97.5638 8.07999 97.5838 7.77333 97.6105 7.47999L93.5905 7.57999L93.6105 12.74C93.6105 12.9267 93.6038 13.2 93.5905 13.56C93.5771 13.9067 93.5571 14.2333 93.5305 14.54C93.7571 14.5133 94.0105 14.5 94.2905 14.5C94.5838 14.4867 94.7971 14.48 94.9305 14.48V16H89.5905Z" fill="#052751"/>
<path d="M108.27 21.1V19.8C108.644 19.8 108.91 19.7267 109.07 19.58C109.23 19.4333 109.33 19.22 109.37 18.94C109.424 18.6733 109.45 18.3667 109.45 18.02L109.47 15.2C109.044 15.6133 108.597 15.9 108.13 16.06C107.677 16.2333 107.217 16.32 106.75 16.32C105.95 16.32 105.244 16.1133 104.63 15.7C104.03 15.2867 103.557 14.7 103.21 13.94C102.877 13.18 102.71 12.2867 102.71 11.26C102.71 10.18 102.917 9.21999 103.33 8.37999C103.744 7.53999 104.324 6.87999 105.07 6.39999C105.83 5.91999 106.71 5.67999 107.71 5.67999C108.457 5.67999 109.044 5.75333 109.47 5.89999C109.91 6.04666 110.257 6.11999 110.51 6.11999C110.617 6.11999 110.737 6.09333 110.87 6.03999C111.017 5.97333 111.13 5.89333 111.21 5.79999H112.29V17.88C112.29 18.0667 112.284 18.3267 112.27 18.66C112.257 19.0067 112.237 19.3333 112.21 19.64C112.424 19.6133 112.657 19.5933 112.91 19.58C113.177 19.58 113.377 19.58 113.51 19.58V21.1H108.27ZM107.79 14.52C108.124 14.52 108.437 14.4333 108.73 14.26C109.037 14.0867 109.277 13.86 109.45 13.58V8.89999C109.45 8.39333 109.364 8.02 109.19 7.77999C109.03 7.52666 108.83 7.35999 108.59 7.27999C108.364 7.18666 108.137 7.13999 107.91 7.13999C107.324 7.13999 106.864 7.33333 106.53 7.71999C106.197 8.09333 105.964 8.57333 105.83 9.16C105.697 9.73333 105.637 10.3333 105.65 10.96C105.664 11.52 105.737 12.0733 105.87 12.62C106.017 13.1667 106.244 13.62 106.55 13.98C106.857 14.34 107.27 14.52 107.79 14.52Z" fill="#052751"/>
<path d="M118.495 16.32C117.695 16.32 117.048 16.1667 116.555 15.86C116.075 15.5533 115.722 15.0733 115.495 14.42C115.282 13.7667 115.175 12.9267 115.175 11.9V9.59999C115.175 9.35999 115.182 9.08666 115.195 8.77999C115.208 8.45999 115.222 8.15333 115.235 7.85999C115.022 7.87333 114.768 7.88666 114.475 7.89999C114.195 7.89999 113.982 7.90666 113.835 7.91999V6.39999H114.035C114.862 6.39999 115.515 6.33333 115.995 6.2C116.475 6.06666 116.782 5.93333 116.915 5.79999H118.015V11.92C118.015 12.7867 118.128 13.4333 118.355 13.86C118.582 14.2733 118.942 14.48 119.435 14.48C119.782 14.48 120.128 14.3867 120.475 14.2C120.835 14 121.128 13.7733 121.355 13.52V9.59999C121.355 9.35999 121.362 9.08666 121.375 8.77999C121.388 8.45999 121.408 8.15333 121.435 7.85999C121.222 7.87333 120.968 7.88666 120.675 7.89999C120.395 7.89999 120.182 7.90666 120.035 7.91999V6.39999H120.515C121.142 6.39999 121.695 6.33333 122.175 6.2C122.655 6.05333 122.962 5.91999 123.095 5.79999H124.195V12.78C124.195 12.9667 124.188 13.2333 124.175 13.58C124.162 13.9133 124.142 14.2333 124.115 14.54C124.328 14.5133 124.562 14.5 124.815 14.5C125.082 14.4867 125.282 14.48 125.415 14.48V16H121.615C121.602 15.8267 121.582 15.6533 121.555 15.48C121.542 15.3067 121.522 15.1333 121.495 14.96C121.082 15.3067 120.635 15.62 120.155 15.9C119.688 16.18 119.135 16.32 118.495 16.32Z" fill="#052751"/>
<path d="M131.458 16.32C130.485 16.32 129.625 16.1067 128.878 15.68C128.132 15.24 127.552 14.6267 127.138 13.84C126.725 13.04 126.518 12.1 126.518 11.02C126.518 10.0867 126.725 9.21333 127.138 8.39999C127.552 7.58666 128.132 6.93333 128.878 6.43999C129.638 5.93333 130.518 5.67999 131.518 5.67999C132.078 5.67999 132.625 5.75999 133.158 5.91999C133.692 6.06666 134.172 6.32666 134.598 6.69999C135.038 7.07333 135.385 7.57999 135.638 8.21999C135.905 8.85999 136.032 9.65999 136.018 10.62L129.458 10.74C129.458 11.46 129.545 12.1067 129.718 12.68C129.905 13.2533 130.205 13.7067 130.618 14.04C131.032 14.3733 131.585 14.54 132.278 14.54C132.545 14.54 132.845 14.4933 133.178 14.4C133.525 14.3067 133.872 14.1533 134.218 13.94C134.578 13.7133 134.912 13.4133 135.218 13.04L136.118 13.88C135.638 14.56 135.125 15.08 134.578 15.44C134.032 15.7867 133.485 16.02 132.938 16.14C132.405 16.26 131.912 16.32 131.458 16.32ZM129.578 9.33999H133.258C133.245 8.77999 133.165 8.33999 133.018 8.01999C132.885 7.68666 132.698 7.44666 132.458 7.29999C132.218 7.15333 131.938 7.07999 131.618 7.07999C131.032 7.07999 130.572 7.29333 130.238 7.71999C129.905 8.13333 129.685 8.67333 129.578 9.33999Z" fill="#052751"/>
</svg>
